/* XPM */
static char *coin[] = {
/* columns rows colors chars-per-pixel */
"50 50 201 2 ",
"   c #060605",
".  c #0A0503",
"X  c #060903",
"o  c #0A0902",
"O  c #06060A",
"+  c #09060B",
"@  c #04090B",
"#  c #0A090B",
"$  c #130301",
"%  c #190400",
"&  c #110A02",
"*  c #1A0B00",
"=  c #12040A",
"-  c #120B0A",
";  c #1B0C0F",
":  c #081001",
">  c #1A1200",
",  c #181700",
"<  c #060511",
"1  c #090512",
"2  c #040A12",
"3  c #0A0A12",
"4  c #110B12",
"5  c #111310",
"6  c #270C00",
"7  c #2C0F00",
"8  c #201600",
"9  c #241B00",
"0  c #2D1900",
"q  c #341600",
"w  c #311E00",
"e  c #3F1D00",
"r  c #2B2200",
"t  c #342500",
"y  c #392200",
"u  c #312900",
"i  c #3D3400",
"p  c #3F3D00",
"a  c #462E00",
"s  c #4B2D00",
"d  c #463600",
"f  c #4B3600",
"g  c #493E00",
"h  c #463C00",
"j  c #46430C",
"k  c #4A4710",
"l  c #504E13",
"z  c #575518",
"x  c #5A531D",
"c  c #6B5D00",
"v  c #745400",
"b  c #7A5A05",
"n  c #6D6400",
"m  c #706700",
"M  c #706900",
"N  c #796C00",
"B  c #626025",
"V  c #815E00",
"C  c #806703",
"Z  c #896808",
"A  c #837907",
"S  c #8C681E",
"D  c #967E1A",
"F  c #8D7923",
"G  c #987827",
"H  c #A47E29",
"J  c #A09610",
"K  c #AA9D1B",
"L  c #99892D",
"P  c #998732",
"I  c #9F9232",
"U  c #AC872C",
"Y  c #BB9725",
"T  c #A28730",
"R  c #A4933B",
"E  c #BA9837",
"W  c #B2AA25",
"Q  c #BDB129",
"!  c #BEB131",
"~  c #C49F1D",
"^  c #E6AC01",
"/  c #EBAD00",
"(  c #E4AA0B",
")  c #F1AE00",
"_  c #E6B101",
"`  c #ECB301",
"'  c #EDBA01",
"]  c #EEB508",
"[  c #EDBB0C",
"{  c #E6B70D",
"}  c #F3B501",
"|  c #F9B602",
" . c #F5BB02",
".. c #F9BD03",
"X. c #F3B60A",
"o. c #F4BB0A",
"O. c #FABC0B",
"+. c #E7B611",
"@. c #E9BC13",
"#. c #EDB918",
"$. c #F2BE11",
"%. c #F9BD11",
"&. c #C59F24",
"*. c #C0A025",
"=. c #C5A62D",
"-. c #C0B825",
";. c #C6BA28",
":. c #D3AC37",
">. c #C1B636",
",. c #C9B633",
"<. c #C4BC35",
"1. c #D8B03E",
"2. c #D0BE3E",
"3. c #D5AA2A",
"4. c #E4BC26",
"5. c #E3B935",
"6. c #F1BD33",
"7. c #EFC502",
"8. c #EECA02",
"9. c #EEC708",
"0. c #E4CD0D",
"q. c #F5C302",
"w. c #FCC405",
"e. c #F5CB02",
"r. c #FCCD04",
"t. c #F4C20B",
"y. c #FCC40A",
"u. c #F3CD0A",
"i. c #FDCB0A",
"p. c #EBD700",
"a. c #EEDA00",
"s. c #E9D40B",
"d. c #F6D204",
"f. c #FDD405",
"g. c #F2DB05",
"h. c #FED905",
"j. c #F3D30A",
"k. c #FDD30A",
"l. c #F4D80B",
"z. c #FDDA0B",
"x. c #ECCB1A",
"c. c #F3C213",
"v. c #FBC313",
"b. c #F1CA12",
"n. c #FECC14",
"m. c #FCC419",
"M. c #FFCC1A",
"N. c #F1C01B",
"B. c #EDD712",
"V. c #F4D513",
"C. c #FED413",
"Z. c #F2DA15",
"A. c #FDDA13",
"S. c #F3DB1B",
"D. c #FFDB1C",
"F. c #F1E017",
"G. c #F5E21B",
"H. c #F9E31D",
"J. c #D1C734",
"K. c #EDC12C",
"L. c #F0CF20",
"P. c #FCCD24",
"I. c #F5CA2B",
"U. c #F5C024",
"Y. c #F5D020",
"T. c #F5DD22",
"R. c #FADF22",
"E. c #EBC334",
"W. c #ECC93D",
"Q. c #ECC539",
"!. c #F7C532",
"~. c #FCC632",
"^. c #F3CA36",
"/. c #F2C838",
"(. c #F3C43A",
"). c #EBD53C",
"_. c #E7D539",
"`. c #F5DE33",
"'. c #F5E32D",
"]. c #EEE53A",
"[. c #F7E634",
"{. c #FBE534",
"}. c #F6E33B",
"|. c #FAE53C",
" X c #F3E93F",
".X c #F7E937",
"XX c #D3AE46",
"oX c #DBB945",
"OX c #E2B541",
"+X c #EBB948",
"@X c #D7C646",
"#X c #DECB52",
"$X c #E0D24F",
"%X c #EEDF48",
"&X c #EAD941",
"*X c #F2DF43",
"=X c #E2CE52",
"-X c #E6D257",
";X c #E8C545",
":X c #EFE14A",
">X c #F5E448",
/* pixels */
"1 1 +   O O @ @ + + + + 1 @ X X @ @ @ @ O       + + 1 1 < O     @ + @ @ @ @   o X X 1 + o X   O O # ",
"1 +   X   O @ O # # + + + # X X @ @ O O O         O + + # #     + + # O # @ O   X X + + o o O @ # # ",
"o X X X X X X X X o   +   X X X   + + + O + O O O     o     o # +   o X o O O O X X   O   O < < O   ",
"X X X X X   X X o o     o o       +     + O O O   X o o o o   + +   o o   + O O X X       O < 1 O   ",
"O     O < < +   o o o   o   + + +   o o o o + + 4 #       O O O O   o   + + + + < O O   X X < < O   ",
"O O   O < < + +             + O #   o o o o + + + + +     O O #   X     + + + + < < O   X X @ @ O   ",
"O   X X   + + + + O O O O     X     o   # O O #     X   # # + . X X X X                     X X     ",
"O   X o o   + O O O O O O O X X o     . o o o o B p ,   . & & .   X X X       X X X X X     X X     ",
"< O   o o   + O X X X O < 3     X X X . . t A J. X].-.M r . .   4   .     +       X X X X   O O     ",
"< +   o     O O X : X X   3 # o X X o g R -X|.G.p.a.G.}.@XL g . . . & .     # #   X X X     O O O   ",
"+   o o o   O O X X X X 3 - . . 8 n >.:X|.T.V.j.A.z.j.j.R.{._.,.c r . . . -   O     O O O + +       ",
"+ + o o     O O   O X o . . t P #X*X[.Z.j.z.A.D.i.i.k.h.h.d.z.R.>X@XL d . . . +   O < < O           ",
"1 <   o   + O O < < # . i W ).}.T.S.V.V.A.C.y.} / / } i.k.f.f.z.j.T.`._.Q i . + + O O O X o + + +   ",
"< O X o + O X   < 3 . & <.[.H.g.z.z.A.n.y.` / } } } / ^ ` i.k.f.h.h.8.Z.'.J $ =   + O O X X + O O   ",
"X X X X 1 O X X   + . d >XB.D.C.D.i.` _ ` ` `  ...} } o.` ^ ^ } i.i.k.u.s._.t . . + 1 < X X   +     ",
"X X X o 1 + X X X o . P }.l.C.n.^ / / ` } } } q.}  .....o.o.X./ ) } i.u.l.`.Z $ o # 1 O X X   #     ",
"@ @   + + O o o X o 9 =XS.z.C./ `  . .}  . . . . . . . . . . . .} ` ' n.u.L.oX6 .   +   X   O O #   ",
"@ O + + +   o o X X m *XZ.z.w./ ` }  . . . . ... . . . ... . . . .` ` v.i.b.^.v . #     # O @ O O   ",
"@ O + + o o o     o >.'.V.A.` / } o.o.o..... .w.i.w.w.w.......o...} ` t.r.9.Y.*.% . . O #   #       ",
"O O +   . o     . h %XZ.C.C.^ } o.o.o...w. .q.w.C.C.i.w.q.........o.` ' r.8.u.Q.s . # O     #       ",
"    +   o o + o . R |.j.C.y.^ o. . . . .q.q.w.k.C.C.k.r.q. . .q. ...} ` r.e.e.I.H % & < O           ",
"o   O O o   + o w =XT.z.C.` `  .w.i.w.q.q.e.f.h.f.h.h.f.e.q.q.q.i.y.o.` q.r.q.c.+Xe . @ # + . +     ",
"o o O O + # O o N }.V.C.y.^ o. .i.k.k.r.r.f.h.f.f.f.h.f.f.f.f.i.C...O.} ' e.q.o.~.Z .   # + + +     ",
"o o   O + +   o ;.H.V.C. ./ y.' q.k.k.f.f.f.f.f.f.f.f.f.f.f.h.k.i.` |  .` t.v.o.%.3.> @ #   # . +   ",
"      # 3 3   l ].g.k.n./ | }  .' i.k.k.r.k.h.f.z.d.f.k.k.d.k.C.t.^ O./ o.o.m.X.} /.x     . + +     ",
"+ #       #   z  Xa.A.i./ } } q.' i.k.k.i.k.k.d.d.e.k.k.k.j.k.C.q.` O.o.o.t.m.%.o.5.d X   . #       ",
"O + X o   O   , J.F.z.r.} / o.t.' q.i.i.i.r.r.f.r.d.k.f.e.d.k.u.' ` O.O.] v.t.o.U.Y * o o o     # O ",
"3 O   X # # X   A |.j.z.w./ o.o. .q.i.k.k.k.k.k.h.k.k.f.r.k.k.i._ O.O.X.o.n. ._ Q.b .   o       # O ",
"3 O   o     # o u $XS.h.k.` ] X. .q.w.i.k.r.r.r.r.r.r.w.r.k.i.q.` y.o.] m.c.' @.XXy .   o     O   O ",
"@ O   # O     . . I {.d.z.q._ o.}  .w.i.i.r.r.r.r.r.i.r.i.i.w.} } O.o.X.M.] ' I.G $ & . o     O O O ",
"O       O 3 # - . g ).l.h.h.^ X.o.....y.y.i.i.w.i.w.y.i.y.y...}  . .O.v.m._ ' 4.f . = . o X @ O O   ",
"  O + O O 3     o . ,.R.d.z.` ` |  .| } } } } ` ` ` ` ` ` } } / ..` o.v.v.[ @.~ % . = .   # 3 O O   ",
"O O O O O   X o # . c `.A.f.i.) | | |  .| O...o.............| o.' [ [ M.` [ E.v $ . o   + 1 + + +   ",
"O O O       X X   & 9 2.R.h.w.| / }  .o.o.o.o. ... .}  . . . .o.c.{ n...` { 1.q $ o X   + 1   o     ",
"O X X X X   X X # o . F `.d.A.y.' ` ` ] X.o.O...|  ...O.o.o.' o.$.c.v.| } !.G $ . O     O O X X     ",
"  X X X X   X X   # $ w ).Z.u.C.C.t.' ` ] ] }  .}  .o.X.X.$.v.v.M.o.| X.( 5.s . + 2         X X     ",
"O O X X + O X X # . . $ K [.0.j.j.j.k.i.i.q.' ` ' ` o.o.v.m.m.$.' } ` ( (.E % . @ @ X X       @ O O ",
"O O O O + + X X     - . i ! &X`.x.b.9.7.e.r.i.y.....v.n.v.o.] [ ` +.6.OXU a . # @ @ X X   O         ",
"X X   O + +     < < + . . $ d D ;X^.P.b.7.q.w.y.v.v.v.o.} ` ' [ K.:.S e $ . o       X X + + . o     ",
"X X   O + +     O O O + 4 $ . $ 7 v =.W.I.c.o...| O.X.^ #.I.4.~ v 7 $ . = +   X O O X X + + . .     ",
"      O 1 1 X X X X X       . o o . $ f H 5.~.v.o.' #.E.oXT d * $ $ . # @ @ O   1 + o X   + + + +   ",
"O O     1 O   X X X X       + O   @ o . $ q V &.E.W.=.C y . . . . + O @ @ @ O O + + o o X   + + O   ",
"< O O O < < O   X X O O     O @ 5     o o     o k j 9 . . $ ; .   o X X X X     o o o X   @ @ @     ",
"O O O O O O O O X X O O X X O O       O O O @ X X X X o . . + +   X X X X X O + o X X     @ @ @     ",
"o o     X X     X X O O o X X o   #         + O # o o o & . . - + O     + + 1 1   X X X X @ @ @     ",
"o o O O X X X X X         o X X #       o   + # + . o . o - . # + +     O + 1 1 +   @ @ X @ O O + O ",
"o o O < O   X X O O + + + O O   O O O # #         # 3 O @ @ O O   o X X X X o . + O @ @ @   + = + O ",
"o   O < < O X X O O + + 1 1 O O O O @ O O # #     #   < 2 @ @ O   o X X X   o . + < @ @ @   = = +   ",
"    O O O O     O O O O O O O       O + O           O O O O O O             o   + O O       + +     ",
"                O                       O O             #   O O                                     "
};
