/* XPM */
static char *door2[] = {
/* columns rows colors chars-per-pixel */
"50 50 253 2 ",
"   c #010204",
".  c #000901",
"X  c #01030C",
"o  c #02090D",
"O  c #0A0909",
"+  c #010413",
"@  c #040A15",
"#  c #01051B",
"$  c #040A1C",
"%  c #090D1B",
"&  c #080B17",
"*  c #021213",
"=  c #0A131D",
"-  c #01161B",
";  c #12181E",
":  c #020523",
">  c #040B23",
",  c #090D22",
"<  c #01052C",
"1  c #030C2B",
"2  c #090E2B",
"3  c #0A0629",
"4  c #031224",
"5  c #0A1225",
"6  c #04132B",
"7  c #0C132B",
"8  c #03192D",
"9  c #091B27",
"0  c #131829",
"q  c #000535",
"w  c #020C34",
"e  c #0A0C33",
"r  c #020B3C",
"t  c #080B3E",
"y  c #031334",
"u  c #0B1334",
"i  c #051934",
"p  c #0B1A34",
"a  c #03133B",
"s  c #0A143B",
"d  c #051A3D",
"f  c #0B1A3C",
"g  c #131B34",
"h  c #131B3B",
"j  c #131639",
"k  c #130E22",
"l  c #0A2239",
"z  c #14243C",
"x  c #0B242B",
"c  c #070D44",
"v  c #021443",
"b  c #0B1544",
"n  c #041A44",
"m  c #0C1A43",
"M  c #02144A",
"N  c #0B154B",
"B  c #031C4C",
"V  c #0B1B4B",
"C  c #121B44",
"Z  c #131D4B",
"A  c #121549",
"S  c #031C54",
"D  c #0B1B53",
"F  c #021B5A",
"G  c #0C1C5B",
"H  c #041657",
"J  c #121C58",
"K  c #000C57",
"L  c #042243",
"P  c #0C234C",
"I  c #07274B",
"U  c #132145",
"Y  c #14234C",
"T  c #18274A",
"R  c #032252",
"E  c #0B2355",
"W  c #01235C",
"Q  c #0A235A",
"!  c #022A5D",
"~  c #0D2B5B",
"^  c #072954",
"/  c #132452",
"(  c #142B54",
")  c #12265A",
"_  c #13295C",
"`  c #1B2C5B",
"'  c #1B2854",
"]  c #1B335D",
"[  c #163554",
"{  c #0E3153",
"}  c #212B5A",
"|  c #233259",
" . c #272C4A",
".. c #011D63",
"X. c #081967",
"o. c #081E73",
"O. c #121C63",
"+. c #042462",
"@. c #0B2564",
"#. c #032B64",
"$. c #0D2B63",
"%. c #02236A",
"&. c #032B6B",
"*. c #0C2D6C",
"=. c #142C64",
"-. c #13256A",
";. c #182867",
":. c #0B336C",
">. c #053768",
",. c #1C3363",
"<. c #193767",
"1. c #022473",
"2. c #032C73",
"3. c #082B78",
"4. c #162A78",
"5. c #0C3372",
"6. c #00337D",
"7. c #0B337A",
"8. c #073876",
"9. c #153474",
"0. c #1D3473",
"q. c #14337C",
"w. c #1B337C",
"e. c #1B3C7C",
"r. c #173B77",
"t. c #233868",
"y. c #363468",
"u. c #222D74",
"i. c #263776",
"p. c #2D366E",
"a. c #05447A",
"s. c #19417B",
"d. c #1C527E",
"f. c #224073",
"g. c #274779",
"h. c #2F4770",
"j. c #40567F",
"k. c #032B82",
"l. c #093C84",
"z. c #0A3A86",
"x. c #143385",
"c. c #1B3482",
"v. c #143C85",
"b. c #1C3C83",
"n. c #123D8C",
"m. c #1B3A8B",
"M. c #183489",
"N. c #053A95",
"B. c #1F3898",
"V. c #142C88",
"C. c #223C89",
"Z. c #293983",
"A. c #323D89",
"S. c #22338E",
"D. c #094488",
"F. c #1B4285",
"G. c #1A418A",
"H. c #164589",
"J. c #0B5789",
"K. c #18578D",
"L. c #0A4697",
"P. c #174796",
"I. c #0A5997",
"U. c #19579A",
"Y. c #24458D",
"T. c #2C4C8D",
"R. c #274784",
"E. c #354484",
"W. c #385986",
"Q. c #2B4B92",
"!. c #274998",
"~. c #394C91",
"^. c #23539D",
"/. c #285997",
"(. c #35589C",
"). c #24598B",
"_. c #086595",
"`. c #18659B",
"'. c #1D6F97",
"]. c #28689E",
"[. c #39709C",
"{. c #035AA6",
"}. c #1856A5",
"|. c #1757B4",
" X c #1349A5",
".X c #254AA5",
"XX c #2657A8",
"oX c #325BA3",
"OX c #3958A3",
"+X c #2C55B7",
"@X c #1469A6",
"#X c #1B76A8",
"$X c #1B68B7",
"%X c #1A74BB",
"&X c #0B71A8",
"*X c #2766A6",
"=X c #3866A6",
"-X c #2578AD",
";X c #2865B6",
":X c #3667B8",
">X c #2878BB",
",X c #3D73B4",
"<X c #3E76B8",
"1X c #3773AF",
"2X c #45529B",
"3X c #43639B",
"4X c #4469B6",
"5X c #4376B6",
"6X c #4876A5",
"7X c #1777C1",
"8X c #3867C6",
"9X c #2876C4",
"0X c #367CCA",
"qX c #2968CB",
"wX c #4777C6",
"eX c #1D8CA7",
"rX c #2789BD",
"tX c #3183B9",
"yX c #2998B5",
"uX c #1E8BC3",
"iX c #2B85CA",
"pX c #3985C9",
"aX c #3E97D8",
"sX c #3092CB",
"dX c #24A1C9",
"fX c #38A9DA",
"gX c #31B4D2",
"hX c #4687C7",
"jX c #4597CE",
"kX c #5487D8",
"lX c #5D91DC",
"zX c #4E91D2",
"xX c #6897D7",
"cX c #46A6D8",
"vX c #54A8DA",
"bX c #4BB0DC",
"nX c #4398E3",
"mX c #6798E6",
"MX c #44A4E6",
"NX c #4AB8E9",
"BX c #59AAF5",
"VX c #53B6F5",
"CX c #58AFE8",
"ZX c #64B6F5",
"AX c #4EC8F5",
"SX c #58C5F7",
"DX c #59D6FA",
"FX c #50D1EC",
"GX c #62C7FC",
"HX c #6DD3FE",
"JX c #66EBFF",
"KX c #7FFFFF",
"LX c #80AFFF",
/* pixels */
"O O     X X o o o o X X X X o + + + + + # + # # # # # # : : < : : $ # + # , 5 $ % $ + + + + + + @ @ ",
"O       X o o o o o o X X X X X + + + $ $ $ # $ > > : : 3 2 2 : > > > $ # $ $ # $ # # # $ $ # + + # ",
"X X   X o o o X X X X o + + @ & @ + & % % $ # $ $ : : 1 u j j e 1 1 2 2 7 7 6 1 > > > > > 1 > : : 3 ",
"+ o o o X X X X + + + @ & & & & & + + $ $ @ # $ > > : 1 u j s < > 1 6 u g g g u 6 1 1 > 1 2 2 1 e e ",
"+ + + + + + + + % % & & + + X X % & + + + + # $ 7 7 2 e s j e < 1 , 7 u u u 2 1 f u w < < w w w Z Z ",
"+ + + + $ % % % % & + + X X X X % & + + @ + $ , 7 7 2 e C A b e e 2 e u s u w w Y Z b v v V N N V D ",
"+ # # $ , 5 % & + X X X X + & & % & & $ $ $ $ , : > e s A Z Z A r r t b A N D D ;.;.;.;.;.u.u.-.0.0.",
"# # > , 5 5 $ + + + X X + + & % # + $ % % $ $ > : 1 e t b N N N c t c N J D G G -.0.i.i.Z.A.Z.0.=.=.",
"# , 7 7 , $ $ $ + @ & + + % % # $ , $ $ $ $ $ > 1 1 w r v M M M a s s m b v v M M M M N S D D V 1 1 ",
"0 7 , $ $ $ % = $ $ @ $ % 5 5 , > 5 > $ , > > 2 1 w s Z ) Q G D m y 1 w a n n v v v v n v v n Y y 1 ",
"g 5 # + + & % % = $ $ $ 7 7 7 1 6 7 1 > 2 1 > 2 1 w a V S S F G w y a a y y a v a w a m d y f ' ` M ",
"% @ + X + @ + o & + # , 7 1 1 2 y u 1 2 u u e s U m V B S @.9.R.M E _ ~ R R ~ <.~ E ( ] ( d y m i.0.",
"X X X o o o     o + $ 6 1 > 1 u a a w u h f f U s v v M H +.9.Y.C.c.w.c.C.!.(.OXOX~.i.;.D N N N ) 0.",
"    o X X X X @ o @ 4 6 1 1 u C Y Z m m C f a f d V E $.@.&.7.G.m.V.3.x.M.x.M.C.w.w.0.u.t.' b q r Q ",
"    X X X X o @ & = 5 > 1 y C ' / Y m m U s w w a V ) =.*.5.v.Y.(.T.Y.Q.F.5.*.e.r.Q v w w u h T a V ",
"        X X o o 5 9 6 > 1 m ' ` N v v n P n r v Q $.r.F.H./.,XkX=Xr.W W +.S S #.f.~ n f u : # > g u ",
". . .   + + $ 4 5 6 1 1 s b N J _ =.R <.<.v S &.7.n.D.}.zXCXhX*X<X=X(.R.0.i.g.f.g.i.;.A c s y > # # ",
". . @ @ + # 7 7 > > 6 u m V V D E.f.=.W :.&.%.XX;X X X0XZXZXcXtX*X).s.,.) E I L ^ ,.y.y.y.} d > $ # ",
"X   + + X $ g 7 7 p p y y y a v $.r.r.r.5X<XP.;X$XpXBXBXpXI.a.#.W r q < : # @ @ + # > 3 7 h z T 6 > ",
"+ + X X % 0 5 > 6 6 y y y i l P S R.7.H.<X0XpX0XnX%XI.I.@X>XtX*Xa.#.E Y p - * - o X X X + # 4 8 z h ",
"+ k + X 0 ; + 4 6 y f m d l I n S w.3.3.N.;XnXaX{.&XsXaX`.a.`.hX/.r._ T h 4 * * - * @ @ + o X + p f ",
"+ , % @ ; * @ z U m V B v I [ I Q H x.n.L.qX9X%XcXsXrXtX@XJ.D.H.(.9.Q / T z l 9 - @ + X X o o @ > 1 ",
"1 # @ = * o 9 T n M F @.@.0.g.<.f.+.v.}.;X$X{.%XGXbX'.>.#.&.1.1.oXF.*.@.) ) ) Y v a e 7 , + X @ 6 y ",
"t.1 4 x * * x d R ..w.Y.b.e.<.a n ! 8.:X0X{.7XVXGXcX'.J.K.H.3.3.P.D.7.2.....-.0.G D c e : # = 0 p u ",
"3Xg.L 8 4 4 { I s.b.4Xm.K R.S w a B R.*X}.iXVXSXDXyXeXyX#XpXpX:XL.6.l.P.n.G.c.w.Z.u.J c e 2 5 g , > ",
"7.xX6Xw y I I :.=X4X^.x...F.g.q a n g.D.I.>XuXNXJXFXDXFXHXcX@XiX9X$X$X>XU.^.(.1.w.E.u.N b C 7 > > , ",
"+Xk.kXxX#.M #.8.5X=X..2.%.:.6XW.w v >.`.tX&XI.dXFXKXJXgXDXDXAXsXMXBXnXiXI.>.s.#.@.g.t.V P Y e < > $ ",
"8XN.XXlXlX^.&.2.=XH.H.,X1X/.).d.[.K.! `.cXrXuXfXDXFXgXdX&X_.fXVX%XnXMX#XI.! R R Q t.=.B E V r j 1 > ",
".X:XwXmXZXmXhX:XP.2.l.^.<XhX1X].#XbXNXSXNXfXSXSXNXrXcX_.S I.*XpX>XsXVX@X_.a.>.B Q 0.<.R B v r C u 7 ",
"G.oXv.n.^.P.:XmXkX*Xl.6.D.L.;X9XiXiXMXsXrXaXcXCXpXI.U.U.D.,X=X5XhX-XHXcX-XJ.s.:.F 9.r.! B B n a y y ",
"$.<.+.*.v.z.2.6.0X;X;X;X|.N.|.qX|.N.}.D.6.D.P.hXXXU.z.U.U.H./.].>.a.ZXvXvXJ.G.m.o.V.v.8.! ^ ^ d d d ",
"L I E M @.q.2.P.l.l.XXL.|.qXqXqX+X.XP.n.n.G.v.oXoX2.7.5.:.>.>.I a K.zX`.jX*X^.!.!.M.Y.Q.8.#.$.S ) _ ",
"i y y d n Q $.9.Q.G.1.n.wX:XL. Xz.7.q.G.Y.T.T.R.f.t.<.( l i 6 6 y [.K.8.*XD.K.*X^.1.w.T.9.q.!.m.!.c.",
"$ > 6 u f v v M +.9.e.Y.4XoXz.3.&.+.W +.$.=.E B P a 1 1 6 6 $ # h.g.#.2.U.U.U.a.&...4.C.w.x.P.P.!.b.",
"+ # # # : < w r c 0.R.9.w.Y.7.H W B B B E E B v w a d 1 : # i | W.R.).K.l.<X5XW R #.q.x.V.o...W v w ",
", $ > > 1 y m Z ` M M =.=.F F $.B d a a v V P P < < < 1 a T h.j.Q 9.*.v.4XkXF.5.R ! q.B.B.M.=.( ( P ",
"$ % , 7 7 u h C d b V / D ) ) n d i y y a n P ( / n v V ( ` / M M M %.C.!.OX*.! ^ W x..XV.o.V y t.;.",
"& $ # # # : : 1 C f Y | Y a a f 6 8 p p f f U Y ` t.t.,.V r q r S *.4.o.-.w.S ~ R &.XX:XB.4.] ' } D ",
"0 5 , > # > 1 2 u  . .u 1 u u : # $ 5 6 6 6 y s w a V / ) ` t.f.f.M X.c.4.=.] ~ :.XX8X.Xk.H v s Y b ",
"$ , 7 0 7 7 > > > 2 1 > 1 > : , 5 , , , > 1 1 1 y f U / ` ] t.t.<.W.2XA.E.,.( ^ 7.:X8XN.1.W v m f y ",
"$ , 5 7 g g g g 7 7 2 2 > > $ $ $ $ > > > > 1 1 1 1 w y y d Y ( <.] <.,.n v n M n.8X Xk.z.+.M Z u 6 ",
"$ $ $ 5 5 7 7 5 > > > > > $ $ $ > > > > > > , > > 6 6 6 6 y p f d P a < a a B 5.:XkX8XP.7.*.Q r 1 > ",
"+ + + $ $ $ # # # # # $ $ $ $ $ > > > > $ $ $ $ 5 5 5 5 5 4 4 6 1 1 8 8 1 w +.Y.wX:X:X.X3...S V m s ",
"o o o + + + + + + + + + + @ & $ # $ $ # # @ & & $ $ $ & @ $ + # > # @ @ : ~ =X4XoXn.^..Xx.4.=.] m f ",
"X X X o X + + + + + + + + + + + + + + + + + + o o o X X X X X + + , + # ,.3X(.Y...%.m.M.x.C.~ v y 6 ",
"            X o X X X X X     X X X X           X       X X + + X + 1 h.3XQ.%.H F %.4.4.4.-.a 1 > > ",
"                                                X       + + + X O   Z ~.C.%.#.:.9.-.4.A.i.M r i # # ",
"                                                          X + +    .p.O.H ..^ R S G u.2Xi.n d > $ > ",
"O                                       .                 + 1 s | / Z s w y 1 w v =.0.u.N m y > 1 1 ",
"X                                                       X , U } G M a 1 # $ # 1 b E -.=.N b 1 : 1 1 "
};
