/* XPM */
static char *pac[] = {
/* columns rows colors chars-per-pixel */
"50 50 196 2 ",
"   c #010101",
".  c #0C0101",
"X  c #020A01",
"o  c #0B0A02",
"O  c #01000B",
"+  c #0A010C",
"@  c #050B08",
"#  c #0C090F",
"$  c #130100",
"%  c #1A0300",
"&  c #140A00",
"*  c #1A0900",
"=  c #110509",
"-  c #1A090B",
";  c #091300",
":  c #121000",
">  c #1E1000",
",  c #030112",
"<  c #0A0313",
"1  c #080B12",
"2  c #05001A",
"3  c #0E0018",
"4  c #0B0A18",
"5  c #140915",
"6  c #220D01",
"7  c #250300",
"8  c #281600",
"9  c #2B1900",
"0  c #231009",
"q  c #231705",
"w  c #331B00",
"e  c #292200",
"r  c #342200",
"t  c #3B2700",
"y  c #3E3600",
"u  c #402D00",
"i  c #4B2D00",
"p  c #4B3300",
"a  c #4C3B00",
"s  c #533C00",
"d  c #5A3C00",
"f  c #4B4200",
"g  c #544000",
"h  c #5D4100",
"j  c #5F4A00",
"k  c #624600",
"l  c #664800",
"z  c #694E00",
"x  c #754E00",
"c  c #675700",
"v  c #6E5803",
"b  c #6B5404",
"n  c #705609",
"m  c #755C08",
"M  c #7E6407",
"N  c #7E6C00",
"B  c #7D6E13",
"V  c #8F6400",
"C  c #816C04",
"Z  c #81660F",
"A  c #8E7801",
"S  c #977D0C",
"D  c #856B16",
"F  c #897117",
"G  c #8B7C13",
"H  c #917716",
"J  c #968300",
"K  c #988500",
"L  c #9C830D",
"P  c #888119",
"I  c #92831C",
"U  c #A38F00",
"Y  c #A88F00",
"T  c #A8910D",
"R  c #B39D0C",
"E  c #A8991A",
"W  c #AB9412",
"Q  c #B1971C",
"!  c #B8A30C",
"~  c #978020",
"^  c #9C8B2B",
"/  c #A48C28",
"(  c #AC9726",
")  c #AE9829",
"_  c #AD952B",
"`  c #B29B33",
"'  c #B8A228",
"]  c #BEA737",
"[  c #CBB007",
"{  c #DFBA0E",
"}  c #DABC00",
"|  c #C3A21D",
" . c #D9BB19",
".. c #E3BB00",
"X. c #E9BB01",
"o. c #E4BB09",
"O. c #FCBC01",
"+. c #CBAF27",
"@. c #CFB72F",
"#. c #D0B526",
"$. c #C7AC39",
"%. c #C1AB33",
"&. c #CAB139",
"*. c #CDB632",
"=. c #D5BA3E",
"-. c #E9BB28",
";. c #ECC400",
":. c #EDCA02",
">. c #EFC60A",
",. c #ECCB0E",
"<. c #E2C300",
"1. c #F4C401",
"2. c #FCC502",
"3. c #F5CB03",
"4. c #FECC02",
"5. c #F6C509",
"6. c #FFC60D",
"7. c #F5CC0C",
"8. c #FECB0A",
"9. c #EDD00A",
"0. c #F5D201",
"q. c #FFD101",
"w. c #FFD500",
"e. c #FDD201",
"r. c #FFDA03",
"t. c #F4D30D",
"y. c #FED30B",
"u. c #F8D80B",
"i. c #ECC614",
"p. c #EBCB15",
"a. c #E1C61F",
"s. c #EECB1A",
"d. c #EBC71B",
"f. c #F2CB16",
"g. c #FFCC10",
"h. c #FCCC13",
"j. c #F3CE1D",
"k. c #F7D013",
"l. c #FED413",
"z. c #F5DA12",
"x. c #FADC16",
"c. c #F3D41C",
"v. c #FCD41A",
"b. c #F4D81B",
"n. c #FCDC1C",
"m. c #FFE10C",
"M. c #FFE716",
"N. c #DCCA20",
"B. c #DBC03F",
"V. c #E7CF27",
"C. c #ECCD2C",
"Z. c #ECCD27",
"A. c #F2CC27",
"S. c #EED223",
"D. c #EFD32A",
"F. c #F2D223",
"G. c #F4D22F",
"H. c #F9DC2B",
"J. c #FBD623",
"K. c #E8CB3F",
"L. c #E6CA36",
"P. c #F3C730",
"I. c #EFD63B",
"U. c #EED932",
"Y. c #F5D333",
"T. c #FDDA33",
"R. c #F5D93B",
"E. c #F8D636",
"W. c #FFE726",
"Q. c #FEE239",
"!. c #C8AC47",
"~. c #CDB440",
"^. c #DEBC40",
"/. c #E2BF49",
"(. c #D8C346",
"). c #DCC656",
"_. c #E5CD41",
"`. c #E9CC4C",
"'. c #F0CA41",
"]. c #ECD442",
"[. c #E2D048",
"{. c #EDD44B",
"}. c #EDDF4A",
"|. c #F2D644",
" X c #FADC42",
".X c #F3D54B",
"XX c #F8DE4B",
"oX c #E0C753",
"OX c #E8C452",
"+X c #F8D752",
"@X c #FFDD58",
"#X c #F7DD52",
"$X c #FFEC42",
"%X c #FFE754",
"&X c #FFE15D",
"*X c #EDD861",
/* pixels */
"            O O O           O + . = + .       o             +   .                   , 2 , O         ",
"            O                   . . .                                               + O O O         ",
"                                          + 1 , O O +                                               ",
"                                          O O O O O           o         O O O O             O O     ",
"                                X X     O , , ,               O         O O , O             O O     ",
"                                X X     O + . . . . . . . . < <           O , ,               O     ",
"                                    O 1 + . $ % % % * * $ . . +             O O +                   ",
"                                O O   . . w n / $.&.&.` D p 6 .               O + +                 ",
"                    O + O +       % $ * C _.D.b.c.b.j.Z. X|.Y a . o             O + + O             ",
"                  O , O O     - 6 $ w ~.R.} m.:.e.w.y.1.7.x.x.V.G . .       +       O O O           ",
"                O O 2 , +   o $ % d OXE.f.m.X.w.2.2.8.g.8.5.3.c.K.G * $ . +             O O         ",
"                O , , <     q $ i '.Y.o.8.1.4.4.q.2.O.6.g.8.1.5.F..XH $ *                 O O       ",
"                O , O +   . $ 8  .>.y.1.q.y.2.e.4.4.2.8.6.8.g.l.7.i.@Xz $ $                 O O     ",
"                O O     . . . I c.0.r.q.1.8.y.8.2.2.8.8.2.2.1.1.4.1.T.=.8 &   X                     ",
"                O O     . . y ).F.y.X.1.y.2.8.2.y.2.1.1.4.q.w.w.q.4.7.C.( . o                       ",
"                      & . $ ^ {.f.4.y.y.8.8.8.8.8.2.4.q.q.4.4.q.q.2.e.S.[.e :   O O                 ",
"                X     . . p {.s.2.4.4.4.8.8.h.h.8.e.4.4.4.4.5.g.4.4.3.c.}.P o     O                 ",
"                X     o $ M E.3.4.4.4.4.8.8.8.8.4.4.4.q.4.8.v.5.4.8.f.R.] f . o                     ",
"                      . $ ] G.3.4.4.2.8.8.8.4.q.r.4.1.4.4.4.4.4.:.J.+XZ * $   +                     ",
"                      . 9 `.s.8.4.4.8.8.8.4.4.q.1.q.4.4.4.4.0.u.H.+.i $ - < , O                     ",
"                    + . g  X,.y.4.4.4.4.4.4.4.4.2.2.2.4.y.t.:.S.A $ * 0 + , O #         O O         ",
"                    < . N H.>.y.4.4.4.4.4.8.8.8.g.2.l.h.{ R.#.p $ $ .   +               O O O O     ",
"O                   + . K n.5.8.4.4.e.4.8.8.8.8.2.y...A.&XD $ . =   X     X   X           O , O     ",
"O               O 1   $ U x.8.4.4.4.4.4.8.8.2.2.5.h.T.| p $ $ , O O X X X X                 O O     ",
"O               O O   $ ! t.8.2.4.4.4.4.q.4.4.4.h.-.V 7 $ . o   @     X X                           ",
"                  O . $ R t.8.4.4.4.4.4.q.q.q.4.v.P.x % 6 &   X                                     ",
"                  + . $ T b.8.4.2.8.8.4.4.4.q.q.3.>.Y.Q r . o   O , 1 @       O O +                 ",
"                      $ S T.3.4.4.2.8.4.4.4.4.q.w.w.t.E.(.c . . 5 <         O O , +                 ",
"                      $ M  X8.4.4.4.4.4.4.4.2.2.4.4.3.:.F.XX( w $ . .         O O +           O     ",
"                      $ h .Xk.e.4.4.4.4.4.8.8.8.2.4.e.e.3.f.A.^.l w $ . .                   O O     ",
"                X     . w /.k.q.q.q.4.8.8.8.8.8.2.y.2.O.2.8.8.v.Q.J r $ . + O             O O O     ",
"                X     . $ !.s.e.q.q.4.8.8.8.2.2.4.4.2.8.8.4.4.4.;.Q.B.b $ . .             O O       ",
"                X X   o $ F a.u.q.1.w.4.3.r.e.e.4.4.4.4.4.4.4.4.2.8.j.C.) r .           O O         ",
"        . .             . u ].,.8.4.1.e.4.;.e.3.4.4.4.4.4.4.4.4.2.8.8.p.#XB $           O           ",
"                    O O . $ ' G.X.n.5.1.y.8.8.4.8.8.8.2.2.4.4.4.4.4.y. .*Xa .                       ",
"                    O O . $ a K.f.1.8.1.8.v.2.8.2.4.4.4.4.4.4.4.r.3.v.|.^ . .                       ",
"        + +         , , + * $ L W...e.y.1.6.6.2.4.4.4.4.4.4.4.4.3.0.Z.oXt . . O                     ",
"        + +         , , O . . r [ M.u.;.g.6.8.2.4.4.4.4.4.4.4.4.:.z.{.v $ $   O                     ",
"      O , +         O , ,   & $ d L.Y.{ v.y.2.4.4.4.4.4.2.2.8.8.x.N./ $ .   +                 O     ",
"      O , O       @   O 4     % $ k ).#Xd.5.3.w.4.4.2.8.8.7.7.f.U.E $ . . O X                 O     ",
"      O , O                     $ $ s !.%Xc.<.0.e.e.4.5.,.s.F.I.N > . = + O X                 O     ",
"    O O O                       + . . 8 C _.$Xb.9.z.b.F. X].W j 8 . . < O   X                       ",
"    O O                             . $ $ w m _ =.@.*.%.~ s 6 $ . . < , O   X                       ",
"    O O                         X       . . $ $ 6 9 8 % $ . $ . < < , O                             ",
"    O             O               X X     . . . . . . . . & o   , ,     @                           ",
"                + , +           ;             . +   + 5 #       O O                                 ",
"                , 2 2 +             X                     @ X     X X X     , ,                     ",
"                , 2 , +         O O O                         X       X     O ,                     ",
"                                                                                                    ",
"                                                                                                    "
};
