/* XPM */
static char *wall[] = {
/* columns rows colors chars-per-pixel */
"50 50 164 2 ",
"   c #02025C",
".  c #08095C",
"X  c #010066",
"o  c #090364",
"O  c #000B64",
"+  c #01016A",
"@  c #08016A",
"#  c #020373",
"$  c #0C0272",
"%  c #03037B",
"&  c #030B7C",
"*  c #100474",
"=  c #020F81",
"-  c #030A8E",
";  c #000E95",
":  c #021192",
">  c #0015B6",
",  c #0113BC",
"<  c #0A17BD",
"1  c #060FC4",
"2  c #070FCC",
"3  c #0113C6",
"4  c #0A14C2",
"5  c #001CC0",
"6  c #0115C8",
"7  c #0A14CD",
"8  c #0019CF",
"9  c #060FDA",
"0  c #0314D3",
"q  c #0013D9",
"w  c #0018DC",
"e  c #1933D5",
"r  c #1631DA",
"t  c #0017E7",
"y  c #0419E4",
"u  c #011AED",
"i  c #010FF4",
"p  c #0017F0",
"a  c #021EF3",
"s  c #0411FF",
"d  c #011CF9",
"f  c #0025E3",
"g  c #0021EF",
"h  c #0C22ED",
"j  c #0A34E0",
"k  c #0021F4",
"l  c #012CF7",
"z  c #0325FE",
"x  c #002DFF",
"c  c #0C2FFB",
"v  c #182FF7",
"b  c #112FFF",
"n  c #0639F4",
"m  c #093DF3",
"M  c #0731F9",
"N  c #0B35FF",
"B  c #053FFF",
"V  c #0B3CFD",
"C  c #1830F2",
"Z  c #1531FF",
"A  c #1E34FF",
"S  c #153BFB",
"D  c #212EFF",
"F  c #2239F7",
"G  c #2330FB",
"H  c #2138FA",
"J  c #0443ED",
"K  c #0249EF",
"L  c #0242F5",
"P  c #0C4CF4",
"I  c #0343FF",
"U  c #0C43FD",
"Y  c #0049F8",
"T  c #1A49F1",
"R  c #1442FC",
"E  c #1941F9",
"W  c #2D48F7",
"Q  c #324DF4",
"!  c #334CFD",
"~  c #2754F5",
"^  c #2150FF",
"/  c #2C56FD",
"(  c #335CFF",
")  c #7B8FFF",
"_  c #7F96F4",
"`  c #7D9BF3",
"'  c #7D92FF",
"]  c #7798F9",
"[  c #799CF8",
"{  c #8696ED",
"}  c #839FF3",
"|  c #8A9BF5",
" . c #8293FF",
".. c #869EFE",
"X. c #8A9DFE",
"o. c #9B9DF0",
"O. c #9CB0EF",
"+. c #8DA9F4",
"@. c #87A0FC",
"#. c #89A1FD",
"$. c #92A5F5",
"%. c #9DA6F3",
"&. c #96ADF0",
"*. c #9BABF3",
"=. c #9CA5FF",
"-. c #9BABFD",
";. c #9FB0FE",
":. c #ADBFEE",
">. c #A3ABF6",
",. c #A8B8F6",
"<. c #A1B1FE",
"1. c #ADB6F9",
"2. c #AABDFF",
"3. c #B1BAFD",
"4. c #BBBDFD",
"5. c #9AC6F7",
"6. c #9AC8F9",
"7. c #B4CEEF",
"8. c #AEC2F5",
"9. c #ADC9F1",
"0. c #ADC2FF",
"q. c #ADCDFD",
"w. c #B2C7F6",
"e. c #B2C8F7",
"r. c #B7C8F6",
"t. c #B1CCF7",
"y. c #B5CFF4",
"u. c #B3CAF3",
"i. c #BACCF2",
"p. c #BECAF4",
"a. c #B0C6FF",
"s. c #B2C6FF",
"d. c #BBC7F9",
"f. c #BDC7FA",
"g. c #B5CDFB",
"h. c #B7CBFD",
"j. c #B6CCFD",
"k. c #B5CCFF",
"l. c #B7CCFD",
"z. c #B9C9FA",
"x. c #B9CBFB",
"c. c #BACAFB",
"v. c #BCCAFB",
"b. c #BACAFD",
"n. c #B8CAFC",
"m. c #BCC9FD",
"M. c #BECBFF",
"N. c #BDCEFF",
"B. c #BACCFB",
"V. c #B7D0F8",
"C. c #C6C9FE",
"Z. c #F8FFF5",
"A. c #FBFCF4",
"S. c #F0FFF9",
"D. c #F7F8FC",
"F. c #F7FFFE",
"G. c #F3FDFD",
"H. c #FFFDF9",
"J. c #FFF9FD",
"K. c #F8FFFF",
"L. c #FAFEFF",
"P. c #FCFFFD",
"I. c #FFFDFF",
"U. c #FCFCFD",
/* pixels */
"H.I.) x I m m V B B B B B I I B I I I I I I I I I I I I I I I I I I I I I I B B B V I U V V l ' H.J.",
"I.} S ! a.u.y.d.x.x.b.m.v.v.x.x.f.f.f.f.f.f.f.f.f.f.f.f.f.f.f.f.x.x.x.x.x.x.x.x.e.N.t.q.u.k.Q R +.S.",
"_ T ( 3.D.-...X.X.X.X.X.X.X.X...X.X.X.X.X.X.X.X.X.X.X.X.X.X...X.X.X.X.X.X.X.X.X.#.| { ..-.K.1./ E [ ",
"z W ,.F.;.v p k g k a a a a a a a a a a a a a a a a a a a a a a a a a a a a a a d f h u b <.Z.:.! c ",
"V k.F.*.e 3 < 1 3 3 3 3 3 3 3 3 3 3 3 3 3 3 3 3 3 3 3 3 3 3 3 3 3 3 3 3 3 3 3 3 3 , 2 > q r %.K.2.V ",
"V 9.=.D 9 - % @ # # # # # # # # # # # # # # # # # # # # # # # # # # # # # # # # $ # % # : 8 G $.m.U ",
"J 7. .u 4 # % O o o X X X X o o X X X X X X X X X X X X X X X X X X X X X X X X X   X X + > d ..r.P ",
"B C.X.f 3 $ +   X X X + + + X X X X X X X X X X X X X X X X X X X X X X X X X X + @ +   % 6 u X.i.L ",
"B g.X.g 3 # o X + + X X X X X + X X X X X X X X X X X X X X X X X X X X X X X X + + o X + 3 k #.x.I ",
"B k.X.k 3 # X X + + X X X X X + X X X X X X X X X X X X X X X X X X X X X X X X X + o X + 3 k @.x.I ",
"B h.X.k 3 # X + X X X X X X X + X X X X X X X X X X X X X X X X X X X X X X X X X + X X + 3 k ..x.I ",
"B h.X.k 3 # X X X X X X X X X + X X X X X X X X X X X X X X X X X X X X X X X X + + X + # 3 k ..x.I ",
"B h.X.k 3 # X X X X X X X X X + X X X X X X X X X X X X X X X X X X X X X X X X + + X + # 3 k X.B.I ",
"B h.X.k 3 # X X X X X X X X X + X X X X X X X X X X X X X X X X X X X X X X X X X + X X # 3 k X.x.I ",
"I k.X.k 3 # X X X X X X X X X X X X X X X X X X X X X X X X X X X X X X X X X X X + X X + 3 k X.g.I ",
"I g.X.k 3 # X X X X X X X X X X X X X X X X X X X X X X X X X X X X X X X X X X X + X X + 3 k X.g.I ",
"B h.X.k 3 # X X X X X X X X X + X X X X X X X X X X X X X X X X X X X X X X X X X + X X # 6 a ..B.I ",
"B h.X.k 3 # X X X X X X X X X + X X X X X X X X X X X X X X X X X X X X X X X X X + X X # 6 a ..B.I ",
"B h.X.k 3 # X X X X X X X X X + X X X X X X X X X X X X X X X X X X X X X X X X X + X X # 6 a ..B.I ",
"B h.X.k 3 # X X X X X X X X X + X X X X X X X X X X X X X X X X X X X X X X X X X + X X # 6 a ..B.I ",
"B h.X.k 3 # X X X X X X X X X + X X X X X X X X X X X X X X X X X X X X X X X X X + X X # 6 a ..B.I ",
"B h.X.k 3 # X X X X X X X X X + X X X X X X X X X X X X X X X X X X X X X X X X X + X X # 6 a ..B.I ",
"B h.X.k 3 # X X X X X X X X X + X X X X X X X X X X X X X X X X X X X X X X X X X + X X # 3 a ..B.I ",
"B h.X.k 3 # X X X X X X X X X + X X X X X X X X X X X X X X X X X X X X X X X X X + X X # 3 a ..B.I ",
"B h.X.k 3 # X X X X X X X X X + X X X X X X X X X X X X X X X X X X X X X X X X X + X X # 6 a ..B.I ",
"B h.X.k 3 # X X X X X X X X X + X X X X X X X X X X X X X X X X X X X X X X X X X + X X # 6 a ..B.I ",
"B h.X.k 3 # X X X X X X X X X + X X X X X X X X X X X X X X X X X X X X X X X X X + X X # 6 a ..B.I ",
"B h.X.k 3 # X X X X X X X X X + X X X X X X X X X X X X X X X X X X X X X X X X X + X X # 6 a ..B.I ",
"B h.X.k 3 # X X X X X X X X X + X X X X X X X X X X X X X X X X X X X X X X X X X + X X # 6 a ..B.I ",
"B h.X.k 3 # X X X X X X X X X + X X X X X X X X X X X X X X X X X X X X X X X X X + X X # 6 a ..B.I ",
"B h.X.k 3 # X X X X X X X X X + X X X X X X X X X X X X X X X X X X X X X X X X X + X X # 6 a ..B.I ",
"B h.X.k 3 # X X X X X X X X X + X X X X X X X X X X X X X X X X X X X X X X X X X + X X # 6 a ..B.I ",
"B k.X.k 6 # X X X X X X X X X + X X X X X X X X X X X X X X X X X X X X X X X X X + X X # 6 a ..B.I ",
"B k.X.k 6 # X X X X X X X X X + X X X X X X X X X X X X X X X X X X X X X X X X X + X X # 6 a ..B.I ",
"B k.X.k 6 # X X X X X X X X X + X X X X X X X X X X X X X X X X X X X X X X X X X + X X # 3 a ..B.I ",
"B k.X.k 6 # X X X X X X X X X + X X X X X X X X X X X X X X X X X X X X X X X X X + X X # 6 a ..B.I ",
"B k.X.k 6 # X X X X X X X X X + X X X X X X X X X X X X X X X X X X X X X X X X X + X X # 6 a ..B.I ",
"B k.X.k 6 # X X X X X X X X X + X X X X X X X X X X X X X X X X X X X X X X X X X + X X # 6 a ..B.I ",
"B k.X.k 6 # X X X X X X X X X + X X X X X X X X X X X X X X X X X X X X X X X X X + X X # 6 a ..B.I ",
"B k.X.k 6 # X X X X X X X X X + X X X X X X X X X X X X X X X X X X X X X X X X X + X X # 6 a ..B.I ",
"I 8.X.z , $ @ o X X X X X X X X X X X X X X X X X X X X X X X X X X X X X X X X @ +   @ $ , a } a.V ",
"n b.X.f , & X X + + + + + + + X + + + + + + + + + + + + + + + + + + + + + + + + X o o X & , f ..V.L ",
"U k.| y 7 % X X o o o X X X X X X X X X X X X X X X X X X X X X X X X X X X X X X   .   # 0 h ..B.J ",
"J q.X.t > # +   X X X X + X X X X X X X X X X X X X X X X X X X X X X X X X X X $ X + * @ , i ..m.U ",
"R w.=.Z w ; + % # # # # # # # # # # # # # # # # # # # # # # # # # # # # # # # # o & + @ = 8 A *.p.S ",
"N a.U.*.e 6 > 3 3 3 3 3 3 3 3 3 3 3 3 3 3 3 3 3 3 3 3 3 3 3 3 3 3 3 3 3 3 3 3 3 4 5 , 4 8 j -.A.5.U ",
"M Q 3.Z.>.D d u k k k k a a k a a a a a a a a a a a a a a a a a a a a a a a a a d f a s C &.G.4./ N ",
"' R / :.F.$.....@.X.....X.X.X.X.................................................#.` ....O.J.4.^ F ' ",
"H.+.S ! 0.g.r.p.b.b.b.B.B.B.B.B.B.B.B.B.B.B.B.B.B.B.B.B.B.B.B.B.B.B.B.B.B.B.B.B.h.g.g.m.p.6.~ H o.G.",
"J.S.] N R m P Y I I I I I I I I I I I I I I I I I I I I I I I I I I I I I I I I U I K U N U N ' F.K."
};
